<svg xmlns="http://www.w3.org/2000/svg" width="1200" height="630" viewBox="0 0 1200 630" role="img" aria-label="prooflet Open Graph image"><rect width="1200" height="630" fill="#D8FF38"/><rect x="1158" y="0" width="1" height="630" fill="#0A0A09" opacity=".12"/><rect x="1140" y="0" width="1" height="630" fill="#0A0A09" opacity=".12"/><rect x="1122" y="0" width="1" height="630" fill="#0A0A09" opacity=".12"/><rect x="1104" y="0" width="1" height="630" fill="#0A0A09" opacity=".12"/><rect x="1086" y="0" width="1" height="630" fill="#0A0A09" opacity=".12"/><rect x="1068" y="0" width="1" height="630" fill="#0A0A09" opacity=".12"/><rect x="1050" y="0" width="1" height="630" fill="#0A0A09" opacity=".12"/><g transform="translate(75.6 131.72727272727272) scale(5.7272727272727275)"><path fill="#0A0A09" d="M4 4h8v8h-8ZM12 4h8v8h-8ZM12 12h8v8h-8ZM20 12h8v8h-8ZM20 20h8v8h-8ZM28 20h8v8h-8ZM36 28h8v8h-8ZM44 36h8v8h-8ZM12 44h8v8h-8ZM52 44h8v8h-8ZM20 52h8v8h-8ZM28 52h8v8h-8ZM36 52h8v8h-8ZM44 52h8v8h-8Z"/><path fill="#225CFF" d="M28 28h8v8h-8ZM36 36h8v8h-8ZM44 44h8v8h-8Z"/></g><g fill="#0A0A09" transform="translate(505.1454545454545 252) scale(0.14685314685314685)"><path transform="translate(-63.000 693.000) scale(1 -1)" d="M344 231Q344 294 319 334.5Q294 375 243 375Q229 375 213 373.5Q197 372 186 371L186 113Q198 105 218 100Q238 95 258 95Q302 95 323 130.5Q344 166 344 231ZM469 235Q469 181 457 135.5Q445 90 422 57.5Q399 25 364 7Q329 -11 283 -11Q236 -11 186 12L186 -165L63 -165L63 455Q97 466 146.5 473Q196 480 244 480Q353 480 411 414Q469 348 469 235Z"/><path transform="translate(437.000 693.000) scale(1 -1)" d="M437 345Q425 348 408.5 351Q392 354 375 356.5Q358 359 342 360Q326 361 315 361Q289 361 264 358.5Q239 356 213 349L213 0L89 0L89 439Q138 457 189.5 468Q241 479 310 479Q320 479 338.5 478Q357 477 378 474.5Q399 472 420.5 468.5Q442 465 459 459Z"/><path transform="translate(937.000 693.000) scale(1 -1)" d="M472 236Q472 180 456 134.5Q440 89 411 56Q382 23 341.5 5Q301 -13 251 -13Q201 -13 160.5 5Q120 23 90.5 56Q61 89 45 134.5Q29 180 29 236Q29 291 45.5 336.5Q62 382 91.5 414.5Q121 447 162 464.5Q203 482 251 482Q300 482 340.5 464.5Q381 447 410.5 414.5Q440 382 456 336.5Q472 291 472 236ZM154 235Q154 172 176.5 133Q199 94 249 94Q297 94 321.5 133Q346 172 346 235Q346 298 323.5 336.5Q301 375 251 375Q203 375 178.5 336.5Q154 298 154 235Z"/><path transform="translate(1437.000 693.000) scale(1 -1)" d="M472 236Q472 180 456 134.5Q440 89 411 56Q382 23 341.5 5Q301 -13 251 -13Q201 -13 160.5 5Q120 23 90.5 56Q61 89 45 134.5Q29 180 29 236Q29 291 45.5 336.5Q62 382 91.5 414.5Q121 447 162 464.5Q203 482 251 482Q300 482 340.5 464.5Q381 447 410.5 414.5Q440 382 456 336.5Q472 291 472 236ZM154 235Q154 172 176.5 133Q199 94 249 94Q297 94 321.5 133Q346 172 346 235Q346 298 323.5 336.5Q301 375 251 375Q203 375 178.5 336.5Q154 298 154 235Z"/><path transform="translate(1937.000 693.000) scale(1 -1)" d="M139 0L139 368L36 368L36 470L139 470L139 497Q139 554 155.5 591.5Q172 629 200 651.5Q228 674 264 683.5Q300 693 338 693Q377 693 418 686Q459 679 492 663L471 563Q448 571 413.5 579.5Q379 588 348 588Q331 588 315.5 585Q300 582 288.5 572Q277 562 270 543.5Q263 525 263 495L263 470L456 470L456 368L263 368L263 0Z"/><path transform="translate(2437.000 693.000) scale(1 -1)" d="M467 20Q464 18 453.5 13Q443 8 426 2.5Q409 -3 384.5 -7Q360 -11 329 -11Q244 -11 205 39.5Q166 90 166 187L166 586L36 586L36 688L289 688L289 178Q289 130 308 113Q327 96 356 96Q393 96 418 106Q443 116 451 119Z"/><path transform="translate(2937.000 693.000) scale(1 -1)" d="M31 231Q31 293 50 340Q69 387 100 418.5Q131 450 171 466Q211 482 253 482Q357 482 411 420.5Q465 359 465 241Q465 229 464.5 216Q464 203 463 195L158 195Q158 149 196 122.5Q234 96 294 96Q331 96 364.5 104Q398 112 421 120L438 15Q406 4 370 -3.5Q334 -11 289 -11Q229 -11 181.5 4.5Q134 20 100.5 50.5Q67 81 49 126Q31 171 31 231ZM346 280Q346 299 341 316.5Q336 334 325 348Q314 362 297 370.5Q280 379 255 379Q231 379 213.5 371Q196 363 184.5 349Q173 335 166.5 317Q160 299 158 280Z"/><path transform="translate(3437.000 693.000) scale(1 -1)" d="M143 368L36 368L36 470L143 470L143 588L266 608L266 470L463 470L463 368L266 368L266 178Q266 152 271 136Q276 120 285 111Q294 102 307 99Q320 96 336 96Q353 96 367.5 97Q382 98 395.5 100.5Q409 103 423.5 108Q438 113 455 121L472 15Q438 1 398.5 -5Q359 -11 322 -11Q279 -11 246 -4Q213 3 190 23Q167 43 155 79.5Q143 116 143 175Z"/></g></svg>
