<svg xmlns="http://www.w3.org/2000/svg" width="104.967" height="108" viewBox="0 0 104.967 108" role="img" aria-label="Runes stacked lockup"><g transform="translate(20.484 0)"><path fill="#0A0A09" d="M4 4h8v8h-8ZM12 4h8v8h-8ZM20 4h8v8h-8ZM28 4h8v8h-8ZM36 4h8v8h-8ZM44 4h8v8h-8ZM52 4h8v8h-8ZM4 12h8v8h-8ZM28 12h8v8h-8ZM52 12h8v8h-8ZM4 20h8v8h-8ZM20 20h8v8h-8ZM28 20h8v8h-8ZM36 20h8v8h-8ZM52 20h8v8h-8ZM4 28h8v8h-8ZM28 28h8v8h-8ZM52 28h8v8h-8ZM4 36h8v8h-8ZM20 36h8v8h-8ZM28 36h8v8h-8ZM36 36h8v8h-8ZM52 36h8v8h-8ZM4 44h8v8h-8ZM28 44h8v8h-8ZM52 44h8v8h-8ZM4 52h8v8h-8ZM12 52h8v8h-8ZM20 52h8v8h-8ZM28 52h8v8h-8ZM36 52h8v8h-8ZM44 52h8v8h-8ZM52 52h8v8h-8Z"/></g><g fill="#0A0A09" transform="translate(0.000 80) scale(0.043956)"><path transform="translate(-54.000 626.000) scale(1 -1)" d="M214 626Q267 626 310 614Q353 602 384 577Q415 552 431.5 513.5Q448 475 448 423Q448 369 426 325Q404 281 353 258Q370 232 389 200.5Q408 169 426 134.5Q444 100 460.5 65.5Q477 31 489 0L360 0Q337 60 306.5 115.5Q276 171 241 228L177 228L177 0L54 0L54 610Q72 614 93.5 617.5Q115 621 137 622.5Q159 624 179 625Q199 626 214 626ZM323 424Q323 473 293 496Q263 519 214 519Q207 519 197 518.5Q187 518 177 516L177 330L204 330Q267 330 295 354.5Q323 379 323 424Z"/><path transform="translate(446.000 626.000) scale(1 -1)" d="M438 16Q404 7 355.5 -2Q307 -11 250 -11Q192 -11 155 5Q118 21 96.5 50.5Q75 80 67 120Q59 160 59 208L59 470L182 470L182 224Q182 159 197.5 127.5Q213 96 258 96Q286 96 314 101L314 470L438 470Z"/><path transform="translate(946.000 626.000) scale(1 -1)" d="M63 455Q96 464 144.5 472Q193 480 250 480Q306 480 343 464.5Q380 449 401.5 420.5Q423 392 432 352.5Q441 313 441 265L441 0L318 0L318 249Q318 315 303 344Q288 373 242 373Q228 373 214.5 372Q201 371 186 369L186 0L63 0Z"/><path transform="translate(1446.000 626.000) scale(1 -1)" d="M31 231Q31 293 50 340Q69 387 100 418.5Q131 450 171 466Q211 482 253 482Q357 482 411 420.5Q465 359 465 241Q465 229 464.5 216Q464 203 463 195L158 195Q158 149 196 122.5Q234 96 294 96Q331 96 364.5 104Q398 112 421 120L438 15Q406 4 370 -3.5Q334 -11 289 -11Q229 -11 181.5 4.5Q134 20 100.5 50.5Q67 81 49 126Q31 171 31 231ZM346 280Q346 299 341 316.5Q336 334 325 348Q314 362 297 370.5Q280 379 255 379Q231 379 213.5 371Q196 363 184.5 349Q173 335 166.5 317Q160 299 158 280Z"/><path transform="translate(1946.000 626.000) scale(1 -1)" d="M228 93Q273 93 297 99.5Q321 106 321 126Q321 139 313.5 148Q306 157 292.5 163.5Q279 170 261.5 176Q244 182 225 188Q198 196 170 206.5Q142 217 119 233Q96 249 81 273.5Q66 298 66 335Q66 365 77.5 391.5Q89 418 113.5 438.5Q138 459 176 470.5Q214 482 267 482Q313 482 352.5 475Q392 468 421 455L402 351Q385 356 349 367.5Q313 379 268 379Q221 379 204.5 367.5Q188 356 188 343Q188 332 195.5 323.5Q203 315 215.5 308Q228 301 244.5 294.5Q261 288 280 282Q307 273 336 262Q365 251 388.5 234.5Q412 218 427 192.5Q442 167 442 130Q442 101 431 75Q420 49 394.5 30Q369 11 328 0Q287 -11 227 -11Q166 -11 123 3Q80 17 54 28L73 131Q108 117 147.5 105Q187 93 228 93Z"/></g></svg>
